<mxfile host="app.diagrams.net" modified="2023-05-06T16:00:57.032Z" agent="Mozilla/5.0 (Macintosh; Intel Mac OS X 10_15_7) AppleWebKit/537.36 (KHTML, like Gecko) Chrome/112.0.0.0 Safari/537.36" etag="dnv85fxoBo2w0rzM_ZCA" version="21.2.9" type="github">
  <diagram id="C5RBs43oDa-KdzZeNtuy" name="Page-1">
    <mxGraphModel dx="1012" dy="552" grid="1" gridSize="10" guides="1" tooltips="1" connect="1" arrows="1" fold="1" page="1" pageScale="1" pageWidth="827" pageHeight="1169" math="0" shadow="0">
      <root>
        <mxCell id="WIyWlLk6GJQsqaUBKTNV-0" />
        <mxCell id="WIyWlLk6GJQsqaUBKTNV-1" parent="WIyWlLk6GJQsqaUBKTNV-0" />
        <mxCell id="aqm3k7LqhYqqNHdPi3ek-0" value="" style="whiteSpace=wrap;html=1;aspect=fixed;gradientColor=none;" vertex="1" parent="WIyWlLk6GJQsqaUBKTNV-1">
          <mxGeometry x="10" width="1610" height="1610" as="geometry" />
        </mxCell>
        <mxCell id="aqm3k7LqhYqqNHdPi3ek-26" value="Lender" style="swimlane;fontStyle=1;align=center;verticalAlign=top;childLayout=stackLayout;horizontal=1;startSize=26;horizontalStack=0;resizeParent=1;resizeParentMax=0;resizeLast=0;collapsible=1;marginBottom=0;whiteSpace=wrap;html=1;fillColor=#fff2cc;strokeColor=#d6b656;" vertex="1" parent="WIyWlLk6GJQsqaUBKTNV-1">
          <mxGeometry x="920" y="440" width="160" height="114" as="geometry" />
        </mxCell>
        <mxCell id="aqm3k7LqhYqqNHdPi3ek-27" value="&lt;div&gt;- lenderID: int&lt;/div&gt;&lt;div&gt;- password: String&lt;/div&gt;&lt;div&gt;- fullName: String&lt;/div&gt;" style="text;strokeColor=none;fillColor=none;align=left;verticalAlign=top;spacingLeft=4;spacingRight=4;overflow=hidden;rotatable=0;points=[[0,0.5],[1,0.5]];portConstraint=eastwest;whiteSpace=wrap;html=1;" vertex="1" parent="aqm3k7LqhYqqNHdPi3ek-26">
          <mxGeometry y="26" width="160" height="54" as="geometry" />
        </mxCell>
        <mxCell id="aqm3k7LqhYqqNHdPi3ek-28" value="" style="line;strokeWidth=1;fillColor=none;align=left;verticalAlign=middle;spacingTop=-1;spacingLeft=3;spacingRight=3;rotatable=0;labelPosition=right;points=[];portConstraint=eastwest;strokeColor=inherit;" vertex="1" parent="aqm3k7LqhYqqNHdPi3ek-26">
          <mxGeometry y="80" width="160" height="8" as="geometry" />
        </mxCell>
        <mxCell id="aqm3k7LqhYqqNHdPi3ek-29" value="+ addUser(): void" style="text;strokeColor=none;fillColor=none;align=left;verticalAlign=top;spacingLeft=4;spacingRight=4;overflow=hidden;rotatable=0;points=[[0,0.5],[1,0.5]];portConstraint=eastwest;whiteSpace=wrap;html=1;" vertex="1" parent="aqm3k7LqhYqqNHdPi3ek-26">
          <mxGeometry y="88" width="160" height="26" as="geometry" />
        </mxCell>
        <mxCell id="aqm3k7LqhYqqNHdPi3ek-30" value="Student" style="swimlane;fontStyle=1;align=center;verticalAlign=top;childLayout=stackLayout;horizontal=1;startSize=26;horizontalStack=0;resizeParent=1;resizeParentMax=0;resizeLast=0;collapsible=1;marginBottom=0;whiteSpace=wrap;html=1;fillColor=#fff2cc;strokeColor=#d6b656;" vertex="1" parent="WIyWlLk6GJQsqaUBKTNV-1">
          <mxGeometry x="334" y="528" width="160" height="114" as="geometry" />
        </mxCell>
        <mxCell id="aqm3k7LqhYqqNHdPi3ek-31" value="&lt;div&gt;-studentID: int&lt;/div&gt;&lt;div&gt;- password: String&lt;/div&gt;&lt;div&gt;- fullName: String&lt;/div&gt;" style="text;strokeColor=none;fillColor=none;align=left;verticalAlign=top;spacingLeft=4;spacingRight=4;overflow=hidden;rotatable=0;points=[[0,0.5],[1,0.5]];portConstraint=eastwest;whiteSpace=wrap;html=1;" vertex="1" parent="aqm3k7LqhYqqNHdPi3ek-30">
          <mxGeometry y="26" width="160" height="54" as="geometry" />
        </mxCell>
        <mxCell id="aqm3k7LqhYqqNHdPi3ek-32" value="" style="line;strokeWidth=1;fillColor=none;align=left;verticalAlign=middle;spacingTop=-1;spacingLeft=3;spacingRight=3;rotatable=0;labelPosition=right;points=[];portConstraint=eastwest;strokeColor=inherit;" vertex="1" parent="aqm3k7LqhYqqNHdPi3ek-30">
          <mxGeometry y="80" width="160" height="8" as="geometry" />
        </mxCell>
        <mxCell id="aqm3k7LqhYqqNHdPi3ek-33" value="+addStudent(): void" style="text;strokeColor=none;fillColor=none;align=left;verticalAlign=top;spacingLeft=4;spacingRight=4;overflow=hidden;rotatable=0;points=[[0,0.5],[1,0.5]];portConstraint=eastwest;whiteSpace=wrap;html=1;" vertex="1" parent="aqm3k7LqhYqqNHdPi3ek-30">
          <mxGeometry y="88" width="160" height="26" as="geometry" />
        </mxCell>
        <mxCell id="aqm3k7LqhYqqNHdPi3ek-34" value="Rental" style="swimlane;fontStyle=1;align=center;verticalAlign=top;childLayout=stackLayout;horizontal=1;startSize=26;horizontalStack=0;resizeParent=1;resizeParentMax=0;resizeLast=0;collapsible=1;marginBottom=0;whiteSpace=wrap;html=1;fillColor=#fff2cc;strokeColor=#d6b656;" vertex="1" parent="WIyWlLk6GJQsqaUBKTNV-1">
          <mxGeometry x="620" y="460" width="160" height="170" as="geometry" />
        </mxCell>
        <mxCell id="aqm3k7LqhYqqNHdPi3ek-35" value="&lt;div&gt;- rentalID: int&lt;/div&gt;&lt;div&gt;- studentID: int&lt;/div&gt;&lt;div&gt;- lenderID-inte&lt;/div&gt;&lt;div&gt;- issueDate: Date&lt;/div&gt;&lt;div&gt;- dueDate: Date&lt;/div&gt;&lt;div&gt;- isbn: String&lt;/div&gt;" style="text;strokeColor=none;fillColor=none;align=left;verticalAlign=top;spacingLeft=4;spacingRight=4;overflow=hidden;rotatable=0;points=[[0,0.5],[1,0.5]];portConstraint=eastwest;whiteSpace=wrap;html=1;" vertex="1" parent="aqm3k7LqhYqqNHdPi3ek-34">
          <mxGeometry y="26" width="160" height="94" as="geometry" />
        </mxCell>
        <mxCell id="aqm3k7LqhYqqNHdPi3ek-36" value="" style="line;strokeWidth=1;fillColor=none;align=left;verticalAlign=middle;spacingTop=-1;spacingLeft=3;spacingRight=3;rotatable=0;labelPosition=right;points=[];portConstraint=eastwest;strokeColor=inherit;" vertex="1" parent="aqm3k7LqhYqqNHdPi3ek-34">
          <mxGeometry y="120" width="160" height="8" as="geometry" />
        </mxCell>
        <mxCell id="aqm3k7LqhYqqNHdPi3ek-37" value="+ removeInventory(): void +createTicket: void" style="text;strokeColor=none;fillColor=none;align=left;verticalAlign=top;spacingLeft=4;spacingRight=4;overflow=hidden;rotatable=0;points=[[0,0.5],[1,0.5]];portConstraint=eastwest;whiteSpace=wrap;html=1;" vertex="1" parent="aqm3k7LqhYqqNHdPi3ek-34">
          <mxGeometry y="128" width="160" height="42" as="geometry" />
        </mxCell>
        <mxCell id="aqm3k7LqhYqqNHdPi3ek-38" value="Admin" style="swimlane;fontStyle=1;align=center;verticalAlign=top;childLayout=stackLayout;horizontal=1;startSize=26;horizontalStack=0;resizeParent=1;resizeParentMax=0;resizeLast=0;collapsible=1;marginBottom=0;whiteSpace=wrap;html=1;fillColor=#fff2cc;strokeColor=#d6b656;" vertex="1" parent="WIyWlLk6GJQsqaUBKTNV-1">
          <mxGeometry x="920" y="600" width="160" height="160" as="geometry" />
        </mxCell>
        <mxCell id="aqm3k7LqhYqqNHdPi3ek-39" value="&lt;div&gt;- lenderID: int&lt;/div&gt;&lt;div&gt;- studentiD:int&lt;/div&gt;&lt;div&gt;-fullName: String&lt;/div&gt;&lt;div&gt;- password: String&lt;/div&gt;" style="text;strokeColor=none;fillColor=none;align=left;verticalAlign=top;spacingLeft=4;spacingRight=4;overflow=hidden;rotatable=0;points=[[0,0.5],[1,0.5]];portConstraint=eastwest;whiteSpace=wrap;html=1;" vertex="1" parent="aqm3k7LqhYqqNHdPi3ek-38">
          <mxGeometry y="26" width="160" height="64" as="geometry" />
        </mxCell>
        <mxCell id="aqm3k7LqhYqqNHdPi3ek-40" value="" style="line;strokeWidth=1;fillColor=none;align=left;verticalAlign=middle;spacingTop=-1;spacingLeft=3;spacingRight=3;rotatable=0;labelPosition=right;points=[];portConstraint=eastwest;strokeColor=inherit;" vertex="1" parent="aqm3k7LqhYqqNHdPi3ek-38">
          <mxGeometry y="90" width="160" height="8" as="geometry" />
        </mxCell>
        <mxCell id="aqm3k7LqhYqqNHdPi3ek-41" value="+ editUser): void &lt;br&gt;+ editTitle(): void&amp;nbsp; &amp;nbsp; &amp;nbsp;&lt;br&gt;+ editRental(): void" style="text;strokeColor=none;fillColor=none;align=left;verticalAlign=top;spacingLeft=4;spacingRight=4;overflow=hidden;rotatable=0;points=[[0,0.5],[1,0.5]];portConstraint=eastwest;whiteSpace=wrap;html=1;" vertex="1" parent="aqm3k7LqhYqqNHdPi3ek-38">
          <mxGeometry y="98" width="160" height="62" as="geometry" />
        </mxCell>
        <mxCell id="aqm3k7LqhYqqNHdPi3ek-42" value="Copy" style="swimlane;fontStyle=1;align=center;verticalAlign=top;childLayout=stackLayout;horizontal=1;startSize=26;horizontalStack=0;resizeParent=1;resizeParentMax=0;resizeLast=0;collapsible=1;marginBottom=0;whiteSpace=wrap;html=1;fillColor=#fff2cc;strokeColor=#d6b656;" vertex="1" parent="WIyWlLk6GJQsqaUBKTNV-1">
          <mxGeometry x="920" y="280" width="160" height="86" as="geometry" />
        </mxCell>
        <mxCell id="aqm3k7LqhYqqNHdPi3ek-43" value="+ usage: int" style="text;strokeColor=none;fillColor=none;align=left;verticalAlign=top;spacingLeft=4;spacingRight=4;overflow=hidden;rotatable=0;points=[[0,0.5],[1,0.5]];portConstraint=eastwest;whiteSpace=wrap;html=1;" vertex="1" parent="aqm3k7LqhYqqNHdPi3ek-42">
          <mxGeometry y="26" width="160" height="26" as="geometry" />
        </mxCell>
        <mxCell id="aqm3k7LqhYqqNHdPi3ek-44" value="" style="line;strokeWidth=1;fillColor=none;align=left;verticalAlign=middle;spacingTop=-1;spacingLeft=3;spacingRight=3;rotatable=0;labelPosition=right;points=[];portConstraint=eastwest;strokeColor=inherit;" vertex="1" parent="aqm3k7LqhYqqNHdPi3ek-42">
          <mxGeometry y="52" width="160" height="8" as="geometry" />
        </mxCell>
        <mxCell id="aqm3k7LqhYqqNHdPi3ek-45" value="+ amountAvailable(): int" style="text;strokeColor=none;fillColor=none;align=left;verticalAlign=top;spacingLeft=4;spacingRight=4;overflow=hidden;rotatable=0;points=[[0,0.5],[1,0.5]];portConstraint=eastwest;whiteSpace=wrap;html=1;" vertex="1" parent="aqm3k7LqhYqqNHdPi3ek-42">
          <mxGeometry y="60" width="160" height="26" as="geometry" />
        </mxCell>
        <mxCell id="aqm3k7LqhYqqNHdPi3ek-46" value="Reservation" style="swimlane;fontStyle=1;align=center;verticalAlign=top;childLayout=stackLayout;horizontal=1;startSize=26;horizontalStack=0;resizeParent=1;resizeParentMax=0;resizeLast=0;collapsible=1;marginBottom=0;whiteSpace=wrap;html=1;fillColor=#fff2cc;strokeColor=#d6b656;" vertex="1" parent="WIyWlLk6GJQsqaUBKTNV-1">
          <mxGeometry x="620" y="344" width="160" height="52" as="geometry" />
        </mxCell>
        <mxCell id="aqm3k7LqhYqqNHdPi3ek-47" value="+rentalID: int" style="text;strokeColor=none;fillColor=none;align=left;verticalAlign=top;spacingLeft=4;spacingRight=4;overflow=hidden;rotatable=0;points=[[0,0.5],[1,0.5]];portConstraint=eastwest;whiteSpace=wrap;html=1;" vertex="1" parent="aqm3k7LqhYqqNHdPi3ek-46">
          <mxGeometry y="26" width="160" height="26" as="geometry" />
        </mxCell>
        <mxCell id="aqm3k7LqhYqqNHdPi3ek-50" value="Title" style="swimlane;fontStyle=1;align=center;verticalAlign=top;childLayout=stackLayout;horizontal=1;startSize=26;horizontalStack=0;resizeParent=1;resizeParentMax=0;resizeLast=0;collapsible=1;marginBottom=0;whiteSpace=wrap;html=1;fillColor=#fff2cc;strokeColor=#d6b656;" vertex="1" parent="WIyWlLk6GJQsqaUBKTNV-1">
          <mxGeometry x="340" y="280" width="160" height="180" as="geometry" />
        </mxCell>
        <mxCell id="aqm3k7LqhYqqNHdPi3ek-51" value="&lt;div&gt;- name: String&lt;/div&gt;&lt;div&gt;- publication: String&lt;/div&gt;&lt;div&gt;- author: String&lt;/div&gt;&lt;div&gt;- isbn: String&amp;nbsp;&lt;/div&gt;&lt;div&gt;- price: double&lt;/div&gt;&lt;div&gt;- Availability: enum&lt;/div&gt;" style="text;strokeColor=none;fillColor=none;align=left;verticalAlign=top;spacingLeft=4;spacingRight=4;overflow=hidden;rotatable=0;points=[[0,0.5],[1,0.5]];portConstraint=eastwest;whiteSpace=wrap;html=1;" vertex="1" parent="aqm3k7LqhYqqNHdPi3ek-50">
          <mxGeometry y="26" width="160" height="94" as="geometry" />
        </mxCell>
        <mxCell id="aqm3k7LqhYqqNHdPi3ek-52" value="" style="line;strokeWidth=1;fillColor=none;align=left;verticalAlign=middle;spacingTop=-1;spacingLeft=3;spacingRight=3;rotatable=0;labelPosition=right;points=[];portConstraint=eastwest;strokeColor=inherit;" vertex="1" parent="aqm3k7LqhYqqNHdPi3ek-50">
          <mxGeometry y="120" width="160" height="8" as="geometry" />
        </mxCell>
        <mxCell id="aqm3k7LqhYqqNHdPi3ek-53" value="+ addCopy(): void&amp;nbsp;&lt;br&gt;+ removeCopy(): void &lt;br&gt;+ addBook: void" style="text;strokeColor=none;fillColor=none;align=left;verticalAlign=top;spacingLeft=4;spacingRight=4;overflow=hidden;rotatable=0;points=[[0,0.5],[1,0.5]];portConstraint=eastwest;whiteSpace=wrap;html=1;" vertex="1" parent="aqm3k7LqhYqqNHdPi3ek-50">
          <mxGeometry y="128" width="160" height="52" as="geometry" />
        </mxCell>
        <mxCell id="aqm3k7LqhYqqNHdPi3ek-70" value="" style="endArrow=classic;html=1;rounded=0;exitX=0;exitY=0.5;exitDx=0;exitDy=0;" edge="1" parent="WIyWlLk6GJQsqaUBKTNV-1" source="aqm3k7LqhYqqNHdPi3ek-43">
          <mxGeometry width="50" height="50" relative="1" as="geometry">
            <mxPoint x="630" y="620" as="sourcePoint" />
            <mxPoint x="500" y="319" as="targetPoint" />
          </mxGeometry>
        </mxCell>
        <mxCell id="aqm3k7LqhYqqNHdPi3ek-72" value="" style="endArrow=classic;html=1;rounded=0;exitX=0.5;exitY=1;exitDx=0;exitDy=0;" edge="1" parent="WIyWlLk6GJQsqaUBKTNV-1" source="aqm3k7LqhYqqNHdPi3ek-46">
          <mxGeometry width="50" height="50" relative="1" as="geometry">
            <mxPoint x="700" y="400" as="sourcePoint" />
            <mxPoint x="700" y="460" as="targetPoint" />
          </mxGeometry>
        </mxCell>
        <mxCell id="aqm3k7LqhYqqNHdPi3ek-74" value="" style="endArrow=open;endFill=1;endSize=12;html=1;rounded=0;exitX=0.25;exitY=0;exitDx=0;exitDy=0;" edge="1" parent="WIyWlLk6GJQsqaUBKTNV-1" source="aqm3k7LqhYqqNHdPi3ek-34">
          <mxGeometry width="160" relative="1" as="geometry">
            <mxPoint x="540" y="410" as="sourcePoint" />
            <mxPoint x="500" y="430" as="targetPoint" />
            <Array as="points">
              <mxPoint x="660" y="430" />
            </Array>
          </mxGeometry>
        </mxCell>
        <mxCell id="aqm3k7LqhYqqNHdPi3ek-75" value="" style="endArrow=open;endFill=1;endSize=12;html=1;rounded=0;exitX=0;exitY=0.5;exitDx=0;exitDy=0;entryX=0.457;entryY=1.088;entryDx=0;entryDy=0;entryPerimeter=0;" edge="1" parent="WIyWlLk6GJQsqaUBKTNV-1" source="aqm3k7LqhYqqNHdPi3ek-41" target="aqm3k7LqhYqqNHdPi3ek-33">
          <mxGeometry width="160" relative="1" as="geometry">
            <mxPoint x="660" y="750" as="sourcePoint" />
            <mxPoint x="500" y="720" as="targetPoint" />
            <Array as="points">
              <mxPoint x="660" y="730" />
              <mxPoint x="407" y="730" />
            </Array>
          </mxGeometry>
        </mxCell>
        <mxCell id="aqm3k7LqhYqqNHdPi3ek-76" value="" style="endArrow=open;endFill=1;endSize=12;html=1;rounded=0;exitX=0.544;exitY=1.069;exitDx=0;exitDy=0;entryX=0.015;entryY=0.684;entryDx=0;entryDy=0;entryPerimeter=0;exitPerimeter=0;" edge="1" parent="WIyWlLk6GJQsqaUBKTNV-1" source="aqm3k7LqhYqqNHdPi3ek-41" target="aqm3k7LqhYqqNHdPi3ek-52">
          <mxGeometry width="160" relative="1" as="geometry">
            <mxPoint x="813" y="815" as="sourcePoint" />
            <mxPoint x="300" y="730" as="targetPoint" />
            <Array as="points">
              <mxPoint x="1007" y="816" />
              <mxPoint x="553" y="816" />
              <mxPoint x="300" y="816" />
              <mxPoint x="300" y="407" />
            </Array>
          </mxGeometry>
        </mxCell>
        <mxCell id="aqm3k7LqhYqqNHdPi3ek-77" value="" style="endArrow=open;endFill=1;endSize=12;html=1;rounded=0;exitX=-0.007;exitY=0.895;exitDx=0;exitDy=0;exitPerimeter=0;" edge="1" parent="WIyWlLk6GJQsqaUBKTNV-1" source="aqm3k7LqhYqqNHdPi3ek-35">
          <mxGeometry width="160" relative="1" as="geometry">
            <mxPoint x="654" y="600" as="sourcePoint" />
            <mxPoint x="494" y="570" as="targetPoint" />
            <Array as="points" />
          </mxGeometry>
        </mxCell>
        <mxCell id="aqm3k7LqhYqqNHdPi3ek-78" value="" style="endArrow=open;endFill=1;endSize=12;html=1;rounded=0;exitX=-0.007;exitY=0.895;exitDx=0;exitDy=0;exitPerimeter=0;entryX=1.005;entryY=0.755;entryDx=0;entryDy=0;entryPerimeter=0;" edge="1" parent="WIyWlLk6GJQsqaUBKTNV-1" target="aqm3k7LqhYqqNHdPi3ek-37">
          <mxGeometry width="160" relative="1" as="geometry">
            <mxPoint x="920" y="620" as="sourcePoint" />
            <mxPoint x="795" y="620" as="targetPoint" />
            <Array as="points">
              <mxPoint x="851" y="620" />
            </Array>
          </mxGeometry>
        </mxCell>
        <mxCell id="aqm3k7LqhYqqNHdPi3ek-79" value="" style="endArrow=open;endFill=1;endSize=12;html=1;rounded=0;exitX=0.993;exitY=0.17;exitDx=0;exitDy=0;exitPerimeter=0;entryX=-0.007;entryY=0.651;entryDx=0;entryDy=0;entryPerimeter=0;" edge="1" parent="WIyWlLk6GJQsqaUBKTNV-1" source="aqm3k7LqhYqqNHdPi3ek-35" target="aqm3k7LqhYqqNHdPi3ek-27">
          <mxGeometry width="160" relative="1" as="geometry">
            <mxPoint x="930" y="630" as="sourcePoint" />
            <mxPoint x="791" y="630" as="targetPoint" />
            <Array as="points" />
          </mxGeometry>
        </mxCell>
      </root>
    </mxGraphModel>
  </diagram>
</mxfile>
